<svg width="20" height="20" viewBox="0 0 20 20" fill="none" xmlns="http://www.w3.org/2000/svg">
<path d="M18.3346 5.95117V14.2845C18.3346 14.837 18.1151 15.3669 17.7244 15.7576C17.3337 16.1483 16.8038 16.3678 16.2513 16.3678H3.7513C3.19877 16.3678 2.66886 16.1483 2.27816 15.7576C1.88746 15.3669 1.66797 14.837 1.66797 14.2845V5.95117" stroke="#170F49" stroke-width="1.4" stroke-linecap="round" stroke-linejoin="round"/>
<path d="M18.3346 5.95052C18.3346 5.39799 18.1151 4.86808 17.7244 4.47738C17.3337 4.08668 16.8038 3.86719 16.2513 3.86719H3.7513C3.19877 3.86719 2.66886 4.08668 2.27816 4.47738C1.88746 4.86808 1.66797 5.39799 1.66797 5.95052L8.89714 10.4644C9.22824 10.6714 9.61084 10.7811 10.0013 10.7811C10.3918 10.7811 10.7744 10.6714 11.1055 10.4644L18.3346 5.95052Z" stroke="#170F49" stroke-width="1.4" stroke-linecap="round" stroke-linejoin="round"/>
</svg>
