<svg width="225" height="65" viewBox="0 0 225 65" fill="none" xmlns="http://www.w3.org/2000/svg">
<path d="M216.467 64.9199H8.5326C3.96012 64.9199 0.21521 61.2662 0.21521 56.8049V8.11507C0.21521 3.65386 3.96012 9.25064e-05 8.5326 9.25064e-05H216.467C221.04 9.25064e-05 224.785 3.65386 224.785 8.11507V56.8049C224.785 61.2662 221.04 64.9199 216.467 64.9199Z" fill="#252525"/>
<path d="M216.467 1.30051C220.318 1.30051 223.452 4.35784 223.452 8.11507V56.8049C223.452 60.5622 220.318 63.6195 216.467 63.6195H8.5326C4.68165 63.6195 1.54807 60.5622 1.54807 56.8049V8.11507C1.54807 4.35784 4.68165 1.30051 8.5326 1.30051H216.467ZM216.467 9.25064e-05H8.5326C3.96012 9.25064e-05 0.21521 3.65386 0.21521 8.11507V56.8049C0.21521 61.2662 3.96012 64.9199 8.5326 64.9199H216.467C221.04 64.9199 224.785 61.2662 224.785 56.8049V8.11507C224.785 3.65386 221.04 9.25064e-05 216.467 9.25064e-05Z" fill="#A6A6A6"/>
<path d="M17.5737 12.2355C17.085 12.7345 16.8022 13.5115 16.8022 14.5178V50.4104C16.8022 51.4166 17.085 52.1936 17.5737 52.6927L17.6943 52.8022L38.3089 32.6974V32.2227L17.6943 12.1178L17.5737 12.2355Z" fill="url(#paint0_linear_314_482)"/>
<path d="M45.1728 39.4023L38.3088 32.6973V32.2226L45.1811 25.5176L45.335 25.6049L53.4735 30.1229C55.7962 31.405 55.7962 33.5149 53.4735 34.8052L45.335 39.3151L45.1728 39.4023Z" fill="url(#paint1_linear_314_482)"/>
<path d="M45.335 39.3152L38.3089 32.46L17.5737 52.6927C18.3451 53.4839 19.6031 53.5793 21.0337 52.7881L45.335 39.3152Z" fill="url(#paint2_linear_314_482)"/>
<path d="M45.335 25.6048L21.0337 12.1319C19.6031 11.3489 18.3451 11.4442 17.5737 12.2354L38.3089 32.46L45.335 25.6048Z" fill="url(#paint3_linear_314_482)"/>
<path d="M79.0932 16.6253C79.0932 17.9805 78.6773 19.0659 77.858 19.8753C76.9161 20.8349 75.6893 21.3178 74.1859 21.3178C72.7491 21.3178 71.5222 20.8268 70.5158 19.8591C69.5073 18.8772 69.0042 17.6721 69.0042 16.2297C69.0042 14.7873 69.5073 13.5822 70.5158 12.6084C71.5222 11.6326 72.7491 11.1416 74.1859 11.1416C74.9012 11.1416 75.5832 11.2856 76.234 11.5534C76.8828 11.8233 77.411 12.1884 77.7936 12.6388L76.9244 13.4949C76.2569 12.7261 75.3482 12.3467 74.1859 12.3467C73.1379 12.3467 72.2292 12.7037 71.4578 13.4239C70.6947 14.1462 70.3121 15.0814 70.3121 16.2297C70.3121 17.378 70.6947 18.3213 71.4578 19.0436C72.2292 19.7557 73.1379 20.1208 74.1859 20.1208C75.2983 20.1208 76.2341 19.7557 76.9722 19.0354C77.4588 18.5587 77.7353 17.9014 77.8081 17.0615H74.1859V15.8889H79.0183C79.0765 16.1425 79.0932 16.3879 79.0932 16.6253Z" fill="white" stroke="white" stroke-width="0.105992" stroke-miterlimit="10"/>
<path d="M86.7597 12.5597H82.2205V15.6434H86.3126V16.816H82.2205V19.8997H86.7597V21.0946H80.9354V11.3647H86.7597V12.5597Z" fill="white" stroke="white" stroke-width="0.105992" stroke-miterlimit="10"/>
<path d="M92.1701 21.0946H90.8851V12.5597H88.1008V11.3647H94.9564V12.5597H92.1701V21.0946Z" fill="white" stroke="white" stroke-width="0.105992" stroke-miterlimit="10"/>
<path d="M99.9178 21.0946V11.3647H101.201V21.0946H99.9178Z" fill="white" stroke="white" stroke-width="0.105992" stroke-miterlimit="10"/>
<path d="M106.888 21.0946H105.613V12.5597H102.818V11.3647H109.682V12.5597H106.888V21.0946Z" fill="white" stroke="white" stroke-width="0.105992" stroke-miterlimit="10"/>
<path d="M122.662 19.8429C121.678 20.8268 120.46 21.3178 119.006 21.3178C117.544 21.3178 116.326 20.8268 115.342 19.8429C114.361 18.861 113.872 17.6559 113.872 16.2297C113.872 14.8035 114.361 13.5984 115.342 12.6165C116.326 11.6326 117.544 11.1416 119.006 11.1416C120.451 11.1416 121.67 11.6326 122.653 12.6246C123.643 13.6146 124.132 14.8116 124.132 16.2297C124.132 17.6559 123.643 18.861 122.662 19.8429ZM116.293 19.0273C117.033 19.7557 117.933 20.1208 119.006 20.1208C120.071 20.1208 120.98 19.7557 121.711 19.0273C122.45 18.299 122.824 17.3638 122.824 16.2297C122.824 15.0956 122.45 14.1604 121.711 13.4321C120.98 12.7037 120.071 12.3386 119.006 12.3386C117.933 12.3386 117.033 12.7037 116.293 13.4321C115.555 14.1604 115.18 15.0956 115.18 16.2297C115.18 17.3638 115.555 18.299 116.293 19.0273Z" fill="white" stroke="white" stroke-width="0.105992" stroke-miterlimit="10"/>
<path d="M125.935 21.0946V11.3647H127.494L132.343 18.932H132.399L132.343 17.0615V11.3647H133.626V21.0946H132.287L127.209 13.1541H127.153L127.209 15.0327V21.0946H125.935Z" fill="white" stroke="white" stroke-width="0.105992" stroke-miterlimit="10"/>
<path d="M113.556 35.3042C109.649 35.3042 106.457 38.2053 106.457 42.208C106.457 46.1783 109.649 49.1098 113.556 49.1098C117.472 49.1098 120.664 46.1783 120.664 42.208C120.664 38.2053 117.472 35.3042 113.556 35.3042ZM113.556 46.3913C111.413 46.3913 109.568 44.6648 109.568 42.208C109.568 39.7187 111.413 38.0227 113.556 38.0227C115.7 38.0227 117.553 39.7187 117.553 42.208C117.553 44.6648 115.7 46.3913 113.556 46.3913ZM98.0672 35.3042C94.1518 35.3042 90.9684 38.2053 90.9684 42.208C90.9684 46.1783 94.1518 49.1098 98.0672 49.1098C101.981 49.1098 105.166 46.1783 105.166 42.208C105.166 38.2053 101.981 35.3042 98.0672 35.3042ZM98.0672 46.3913C95.9214 46.3913 94.0707 44.6648 94.0707 42.208C94.0707 39.7187 95.9214 38.0227 98.0672 38.0227C100.211 38.0227 102.055 39.7187 102.055 42.208C102.055 44.6648 100.211 46.3913 98.0672 46.3913ZM79.6359 37.4202V40.3537H86.8159C86.6059 41.993 86.0445 43.198 85.1836 44.0379C84.1356 45.0523 82.5033 46.1783 79.6359 46.1783C75.2173 46.1783 71.7573 42.699 71.7573 38.3879C71.7573 34.0768 75.2173 30.5975 79.6359 30.5975C82.0251 30.5975 83.7634 31.5084 85.0464 32.6891L87.1652 30.6219C85.3708 28.9502 82.9837 27.666 79.6359 27.666C73.5767 27.666 68.4844 32.4761 68.4844 38.3879C68.4844 44.2997 73.5767 49.1098 79.6359 49.1098C82.9109 49.1098 85.3708 48.063 87.3045 46.0991C89.2862 44.1658 89.9037 41.4472 89.9037 39.2521C89.9037 38.5705 89.8455 37.9436 89.7415 37.4202H79.6359ZM155.004 39.6944C154.42 38.1505 152.617 35.3042 148.945 35.3042C145.306 35.3042 142.276 38.1018 142.276 42.208C142.276 46.0748 145.275 49.1098 149.294 49.1098C152.544 49.1098 154.42 47.1764 155.191 46.0505L152.779 44.4822C151.974 45.6305 150.879 46.3913 149.294 46.3913C147.72 46.3913 146.591 45.6873 145.867 44.2997L155.33 40.4795L155.004 39.6944ZM145.356 41.993C145.275 39.3313 147.475 37.9679 149.051 37.9679C150.286 37.9679 151.334 38.5705 151.683 39.4327L145.356 41.993ZM137.664 48.6899H140.775V28.4024H137.664V48.6899ZM132.57 36.842H132.466C131.767 36.0345 130.434 35.3042 128.746 35.3042C125.203 35.3042 121.963 38.3392 121.963 42.2303C121.963 46.0991 125.203 49.1098 128.746 49.1098C130.434 49.1098 131.767 48.3734 132.466 47.5416H132.57V48.5316C132.57 51.171 131.125 52.5891 128.794 52.5891C126.893 52.5891 125.714 51.2501 125.228 50.1242L122.522 51.2258C123.302 53.0557 125.367 55.3076 128.794 55.3076C132.441 55.3076 135.518 53.214 135.518 48.1198V35.7241H132.57V36.842ZM129.012 46.3913C126.868 46.3913 125.074 44.6405 125.074 42.2303C125.074 39.7979 126.868 38.0227 129.012 38.0227C131.125 38.0227 132.79 39.7979 132.79 42.2303C132.79 44.6405 131.125 46.3913 129.012 46.3913ZM169.568 28.4024H162.128V48.6899H165.23V41.0029H169.568C173.013 41.0029 176.392 38.5705 176.392 34.7017C176.392 30.8349 173.005 28.4024 169.568 28.4024ZM169.649 38.181H165.23V31.2244H169.649C171.965 31.2244 173.288 33.101 173.288 34.7017C173.288 36.2719 171.965 38.181 169.649 38.181ZM188.827 35.2657C186.585 35.2657 184.254 36.2313 183.296 38.3717L186.049 39.4976C186.641 38.3717 187.731 38.0065 188.883 38.0065C190.492 38.0065 192.124 38.9499 192.149 40.6155V40.8285C191.588 40.512 190.386 40.0433 188.908 40.0433C185.943 40.0433 182.921 41.6359 182.921 44.608C182.921 47.3265 185.35 49.0773 188.08 49.0773C190.168 49.0773 191.32 48.1583 192.043 47.0892H192.149V48.6574H195.146V40.8751C195.146 37.2782 192.393 35.2657 188.827 35.2657ZM188.452 46.3832C187.438 46.3832 186.024 45.8922 186.024 44.6648C186.024 43.0946 187.787 42.492 189.313 42.492C190.679 42.492 191.32 42.7862 192.149 43.1737C191.906 45.0523 190.249 46.3832 188.452 46.3832ZM206.062 35.7099L202.496 44.5046H202.39L198.704 35.7099H195.358L200.897 48.0001L197.737 54.839H200.978L209.514 35.7099H206.062ZM178.097 48.6899H181.208V28.4024H178.097V48.6899Z" fill="white"/>
<defs>
<linearGradient id="paint0_linear_314_482" x1="36.4786" y1="50.7841" x2="9.24911" y2="22.8755" gradientUnits="userSpaceOnUse">
<stop stop-color="#00A0FF"/>
<stop offset="0.0066" stop-color="#00A1FF"/>
<stop offset="0.2601" stop-color="#00BEFF"/>
<stop offset="0.5122" stop-color="#00D2FF"/>
<stop offset="0.7604" stop-color="#00DFFF"/>
<stop offset="1" stop-color="#00E3FF"/>
</linearGradient>
<linearGradient id="paint1_linear_314_482" x1="56.498" y1="32.4577" x2="16.247" y2="32.4577" gradientUnits="userSpaceOnUse">
<stop stop-color="#FFE000"/>
<stop offset="0.4087" stop-color="#FFBD00"/>
<stop offset="0.7754" stop-color="#FFA500"/>
<stop offset="1" stop-color="#FF9C00"/>
</linearGradient>
<linearGradient id="paint2_linear_314_482" x1="41.5145" y1="28.7335" x2="4.58904" y2="-9.11297" gradientUnits="userSpaceOnUse">
<stop stop-color="#FF3A44"/>
<stop offset="1" stop-color="#C31162"/>
</linearGradient>
<linearGradient id="paint3_linear_314_482" x1="12.3542" y1="64.6339" x2="28.843" y2="47.7339" gradientUnits="userSpaceOnUse">
<stop stop-color="#32A071"/>
<stop offset="0.0685" stop-color="#2DA771"/>
<stop offset="0.4762" stop-color="#15CF74"/>
<stop offset="0.8009" stop-color="#06E775"/>
<stop offset="1" stop-color="#00F076"/>
</linearGradient>
</defs>
</svg>
