<svg width="20" height="19" viewBox="0 0 20 19" fill="none" xmlns="http://www.w3.org/2000/svg">
<path fill-rule="evenodd" clip-rule="evenodd" d="M0.871094 9.39453C0.871094 5.79939 0.871094 4.00182 1.72779 2.70708C2.11034 2.12892 2.60548 1.63378 3.18365 1.25122C4.47838 0.394531 6.27595 0.394531 9.87109 0.394531C13.4662 0.394531 15.2638 0.394531 16.5585 1.25122C17.1367 1.63378 17.6318 2.12892 18.0144 2.70708C18.8711 4.00182 18.8711 5.79939 18.8711 9.39453C18.8711 12.9897 18.8711 14.7872 18.0144 16.082C17.6318 16.6601 17.1367 17.1553 16.5585 17.5378C15.2638 18.3945 13.4662 18.3945 9.87109 18.3945C6.27595 18.3945 4.47838 18.3945 3.18365 17.5378C2.60548 17.1553 2.11034 16.6601 1.72779 16.082C0.871094 14.7872 0.871094 12.9897 0.871094 9.39453ZM14.5298 9.39378C14.5298 11.9671 12.4437 14.0532 9.87035 14.0532C7.29703 14.0532 5.21094 11.9671 5.21094 9.39378C5.21094 6.82046 7.29703 4.73438 9.87035 4.73438C12.4437 4.73438 14.5298 6.82046 14.5298 9.39378ZM9.87035 12.4768C11.573 12.4768 12.9534 11.0965 12.9534 9.39378C12.9534 7.69109 11.573 6.31078 9.87035 6.31078C8.16765 6.31078 6.78734 7.69109 6.78734 9.39378C6.78734 11.0965 8.16765 12.4768 9.87035 12.4768ZM14.712 5.5959C15.3167 5.5959 15.8068 5.10573 15.8068 4.50107C15.8068 3.89642 15.3167 3.40625 14.712 3.40625C14.1074 3.40625 13.6172 3.89642 13.6172 4.50107C13.6172 5.10573 14.1074 5.5959 14.712 5.5959Z" fill="#0098B0"/>
</svg>
