<svg width="16" height="19" viewBox="0 0 16 19" fill="none" xmlns="http://www.w3.org/2000/svg">
<path d="M12.4595 3.32C11.7761 2.53953 11.3994 1.5374 11.3995 0.5H8.30953V12.9C8.28619 13.5712 8.00305 14.2071 7.51984 14.6735C7.03663 15.1399 6.39113 15.4004 5.71953 15.4C4.29953 15.4 3.11953 14.24 3.11953 12.8C3.11953 11.08 4.77953 9.79 6.48953 10.32V7.16C3.03953 6.7 0.0195312 9.38 0.0195312 12.8C0.0195312 16.13 2.77953 18.5 5.70953 18.5C8.84953 18.5 11.3995 15.95 11.3995 12.8V6.51C12.6525 7.40985 14.1569 7.89265 15.6995 7.89V4.8C15.6995 4.8 13.8195 4.89 12.4595 3.32Z" fill="#0098B0"/>
</svg>
