<svg width="12" height="32" viewBox="0 0 12 32" fill="none" xmlns="http://www.w3.org/2000/svg">
<path fill-rule="evenodd" clip-rule="evenodd" d="M5.83589 20.4112L7.66811 18.6401C6.94053 18.8536 6.28995 18.7901 5.83589 18.635L5.18588 19.2633C4.59209 19.8373 3.62774 19.8378 3.03338 19.2633C2.43901 18.6888 2.4396 17.7566 3.03338 17.1827L4.29077 15.9673C4.88573 15.3922 5.84951 15.3922 6.44387 15.9667L7.67344 14.7873C6.5747 13.7253 4.79099 13.7259 3.69286 14.7874L1.85531 16.5635C0.756564 17.6256 0.756564 19.3491 1.8553 20.4112C2.95405 21.4732 4.73715 21.4732 5.83589 20.4112ZM6.75465 11.8278L5.25455 13.2778C5.91935 13.1456 6.48174 13.3345 6.8316 13.5113L7.35256 13.0077C7.94695 12.4332 8.9113 12.4326 9.50565 13.0071C10.1 13.5817 10.0994 14.5138 9.50505 15.0883L8.24827 16.3032C7.65388 16.8777 6.68953 16.8783 6.09518 16.3038C6.07505 16.2843 4.8869 17.4213 4.9177 17.4511C6.01644 18.5131 7.79954 18.5131 8.89828 17.4511L10.7352 15.6754C11.834 14.6134 11.834 12.8898 10.7352 11.8278C9.63649 10.7657 7.85339 10.7657 6.75465 11.8278Z" fill="#242424"/>
</svg>
