<svg width="20" height="21" viewBox="0 0 20 21" fill="none" xmlns="http://www.w3.org/2000/svg">
<path d="M16.8621 9.65479C16.8621 15.0336 11.353 18.3474 10.2081 18.9786C10.1446 19.0136 10.0734 19.0319 10.001 19.0319C9.92852 19.0319 9.85727 19.0136 9.79385 18.9786C8.6481 18.3474 3.14062 15.0336 3.14062 9.65479C3.14062 5.36682 5.71341 2.36523 10.0014 2.36523C14.2894 2.36523 16.8621 5.36682 16.8621 9.65479Z" stroke="#170F49" stroke-width="1.4" stroke-linecap="round" stroke-linejoin="round"/>
<path d="M6.57031 9.2253C6.57031 10.1351 6.93173 11.0076 7.57505 11.6509C8.21837 12.2943 9.0909 12.6557 10.0007 12.6557C10.9105 12.6557 11.783 12.2943 12.4263 11.6509C13.0697 11.0076 13.4311 10.1351 13.4311 9.2253C13.4311 8.31551 13.0697 7.44298 12.4263 6.79966C11.783 6.15634 10.9105 5.79492 10.0007 5.79492C9.0909 5.79492 8.21837 6.15634 7.57505 6.79966C6.93173 7.44298 6.57031 8.31551 6.57031 9.2253V9.2253Z" stroke="#170F49" stroke-width="1.4" stroke-linecap="round" stroke-linejoin="round"/>
</svg>
